Coordinates
version=1
nRows=17
nColumns=24
inDegrees=yes

Units are S.I. units (second, meters, Newtons, ...)
Angles are in degrees.

endheader
time	pelvis_tilt	pelvis_list	pelvis_rotation	pelvis_tx	pelvis_ty	pelvis_tz	hip_flexion_r	hip_adduction_r	hip_rotation_r	knee_angle_r	ankle_angle_r	subtalar_angle_r	mtp_angle_r	hip_flexion_l	hip_adduction_l	hip_rotation_l	knee_angle_l	ankle_angle_l	subtalar_angle_l	mtp_angle_l	lumbar_extension	lumbar_bending	lumbar_rotation
      4.82000000	    -10.10365514	     -2.85277608	      7.23388802	     -1.20102014	     -0.03107714	      2.03465506	     33.84462456	     -0.13426267	    -18.51034269	     -8.80724621	     -1.08268309	      5.39916799	     16.25724936	     -4.51850157	     -0.75755739	     -5.66103594	    -16.17787401	      9.12733636	      8.78057948	     14.13868670	      4.35922741	      1.48743305	     -9.99518670
      4.83000000	    -10.04001194	     -3.19830838	      7.51241937	     -1.18609454	     -0.03261493	      2.03519565	     33.96044711	      0.03829446	    -18.51707465	    -10.39720248	     -1.60346993	      4.42590661	     15.97097136	     -4.55165697	     -1.54781395	     -5.40944986	    -17.83371105	      8.42322065	      9.57707168	     14.52996047	      4.57748826	      1.82319407	    -10.36410739
      4.84000000	    -10.05566570	     -3.57692735	      7.51460936	     -1.17103149	     -0.03408180	      2.03626912	     34.16835421	      0.44873894	    -17.90184547	    -12.11750735	     -2.14903218	      3.17791785	     11.77994328	     -4.44502419	     -2.39457004	     -5.52125192	    -19.47874279	      6.88554238	     10.26310646	     18.16360689	      4.87918900	      2.19199181	    -10.40640839
      4.85000000	    -10.02745805	     -4.13911996	      7.41905309	     -1.15591079	     -0.03520594	      2.03751977	     34.26253607	      1.13209459	    -17.19475048	    -13.67077452	     -3.01216151	      1.91277377	      7.15822965	     -4.17767502	     -3.47084430	     -5.78656396	    -21.46465216	      5.33576796	     11.04716974	     20.36813634	      5.15068910	      2.77004849	    -10.43777393
      4.86000000	    -10.07947855	     -4.84425576	      7.20234022	     -1.14076469	     -0.03605186	      2.03888879	     34.45188875	      2.00385703	    -16.47697657	    -15.16538043	     -4.01075589	      0.76862549	      3.24123367	     -3.62855227	     -4.71801913	     -6.24531069	    -23.69104707	      3.33069923	     11.77882601	     23.07884313	      5.51462809	      3.51426943	    -10.40303687
      4.87000000	    -10.17907763	     -5.53440789	      6.88237756	     -1.12573756	     -0.03658911	      2.04033181	     34.73454574	      2.91389127	    -15.67847822	    -16.67953144	     -5.14119000	     -0.47417889	      1.28729135	     -2.83729169	     -5.92860740	     -6.71558443	    -26.13351905	      0.71621035	     12.09858518	     25.84925803	      5.89455480	      4.25444388	    -10.31811127
      4.88000000	    -10.25115959	     -6.23428496	      6.55530291	     -1.11070313	     -0.03691099	      2.04173046	     35.00580196	      3.82542153	    -15.09096278	    -18.26171865	     -6.08158655	     -1.65015348	      0.75545474	     -1.87053675	     -7.17481127	     -7.18356534	    -28.78423612	     -2.47037323	     12.19242849	     29.15256864	      6.23628372	      5.02433519	    -10.25449643
      4.89000000	    -10.34352389	     -6.87227953	      6.24548392	     -1.09562284	     -0.03719065	      2.04310137	     35.24132814	      4.66951135	    -14.69525311	    -19.81724370	     -6.79841614	     -2.82897081	      1.52506073	     -0.69431947	     -8.35572345	     -7.52920798	    -31.59374873	     -6.24716176	     11.90457261	     32.94520302	      6.59871979	      5.71910085	    -10.20855674
      4.90000000	    -10.36078136	     -7.50753254	      6.00162113	     -1.08063704	     -0.03747382	      2.04442948	     35.25611207	      5.51921040	    -14.47316830	    -21.17781570	     -7.20431077	     -4.00079487	      3.24576418	      0.61175456	     -9.53584505	     -7.66426166	    -34.58640635	    -10.37094009	     11.19562185	     37.04445164	      6.87082603	      6.40428093	    -10.29880001
      4.91000000	    -10.39204241	     -8.16667360	      5.75209382	     -1.06583228	     -0.03782840	      2.04582004	     35.11665119	      6.43926726	    -14.32322306	    -22.27548231	     -7.23034584	     -5.03446323	      5.11815894	      2.11469235	    -10.70928227	     -7.57470080	    -37.75540917	    -14.55279605	     10.09674896	     40.56542347	      7.13552596	      7.09937604	    -10.36553339
      4.92000000	    -10.42732778	     -8.88284231	      5.46687972	     -1.05123061	     -0.03815314	      2.04729925	     34.79681243	      7.49150531	    -14.14765174	    -23.06858742	     -6.87460018	     -5.86999388	      6.54248211	      3.75353226	    -11.90043716	     -7.32234876	    -41.02504516	    -18.58535347	      8.59249185	     43.09538353	      7.38365022	      7.84819943	    -10.43818051
      4.93000000	    -10.45706533	     -9.61499657	      5.15660502	     -1.03696121	     -0.03832877	      2.04875903	     34.31455324	      8.61165554	    -13.93699536	    -23.59400437	     -6.24357505	     -6.50281531	      7.23769159	      5.48889896	    -13.01324939	     -6.87241022	    -44.30995505	    -22.29621488	      6.65035650	     44.30743488	      7.57670162	      8.61867954	    -10.35178014
      4.94000000	    -10.38990190	    -10.30525347	      4.88788359	     -1.02294501	     -0.03815614	      2.05012083	     33.58401075	      9.70130469	    -13.77720949	    -23.88128808	     -5.42090242	     -6.95375544	      7.35418548	      7.18648932	    -13.99384490	     -6.30867300	    -47.49679213	    -25.49615077	      4.41996358	     43.87272502	      7.63469232	      9.34941256	    -10.26536800
      4.95000000	    -10.49763969	    -10.87819815	      4.59644577	     -1.00913605	     -0.03802747	      2.05141488	     32.97931996	     10.62010559	    -13.74578272	    -24.10596420	     -4.44717203	     -7.08970231	      7.44594059	      9.11331656	    -14.74384805	     -5.71384545	    -50.54632853	    -27.97642069	      2.03278524	     42.84417466	      7.85113803	      9.94287420	    -10.08640411
      4.96000000	    -10.48641640	    -11.36529943	      4.33415615	     -0.99546181	     -0.03754982	      2.05267084	     32.15809703	     11.45822303	    -13.79594067	    -24.16426739	     -3.61187454	     -7.26328994	      7.84279271	     10.93861433	    -15.34047480	     -5.10087160	    -53.45272310	    -29.22881088	     -0.07117461	     40.03358938	      7.92327212	     10.44943650	     -9.84578626
      4.97000000	    -10.40500655	    -11.75480768	      4.21415882	     -0.98190851	     -0.03685090	      2.05364621	     31.20808595	     12.08000823	    -14.11156398	    -24.16057442	     -2.65652730	     -7.05231184	      8.61217554	     12.73134259	    -15.72216467	     -4.30518020	    -56.08547743	    -29.53040571	     -1.94694539	     38.50102362	      7.93341444	     10.83903469	     -9.63776833
      4.98000000	    -10.30460323	    -12.06382557	      4.07850701	     -0.96848852	     -0.03600424	      2.05458106	     30.16864229	     12.65680087	    -14.28189306	    -24.02517054	     -1.92090982	     -7.00357796	      9.99645779	     14.50479901	    -15.94639091	     -3.52248823	    -58.50363530	    -28.62141367	     -3.45490582	     36.86124537	      7.91025418	     11.14852263	     -9.41267804
